<?xml version="1.0" standalone="no"?><!DOCTYPE svg PUBLIC "-//W3C//DTD SVG 1.1//EN" "http://www.w3.org/Graphics/SVG/1.1/DTD/svg11.dtd"><svg t="1625915901488" class="icon" viewBox="0 0 1024 1024" version="1.1" xmlns="http://www.w3.org/2000/svg" p-id="9754" xmlns:xlink="http://www.w3.org/1999/xlink" width="200" height="200"><defs><style type="text/css"></style></defs><path d="M511.64 861.51c-76.97 0-149.93-24.6-211.01-71.13-29.36-22.37-54.88-49.09-75.85-79.44-16.96-24.53-30.61-50.96-40.73-78.8H158c-49.63 0-90-40.37-90-90s40.37-90 90-90h10.44c13.28-75.35 51.09-144.33 108.21-196.51 64.33-58.78 147.79-91.14 234.99-91.14 55.6 0 110.44 13.3 159.53 38.59 16.29-7.6 33.68-18.97 47.61-31.34 20.46-18.17 25.86-31.59 25.86-36.15 0-11.62 6.71-22.19 17.22-27.14 13.73-6.47 34.18-4.16 46.64 16.19 11.58 18.91 16.3 54.91 11.74 89.58-4.28 32.58-16.16 61.44-34.21 83.88a347.658 347.658 0 0 1 42.95 70.66 345.4 345.4 0 0 1 25.86 83.38h13.48c49.63 0 90 40.37 90 90s-40.37 90-90 90h-29.08c-10.12 27.84-23.77 54.27-40.73 78.8a349.26 349.26 0 0 1-75.85 79.44c-61.09 46.54-134.05 71.13-211.02 71.13zM158 512.14c-16.54 0-30 13.46-30 30s13.46 30 30 30h47.78c13.34 0 25.08 8.81 28.81 21.62 35.59 122.32 149.52 207.75 277.05 207.75s241.46-85.43 277.05-207.75a30 30 0 0 1 28.81-21.62h50.83c16.54 0 30-13.46 30-30s-13.46-30-30-30h-39.66c-15.46 0-28.38-11.74-29.86-27.13-6.08-63.24-32.21-121.38-75.57-168.14a29.988 29.988 0 0 1-7.9-22.87 29.99 29.99 0 0 1 11.54-21.26c19.7-15.24 28.44-37.86 32.26-56.6l-0.51 0.45c-23.09 20.5-52.66 38.4-79.09 47.88a30.008 30.008 0 0 1-25.01-2.19c-43.29-24.73-92.7-37.8-142.88-37.8-149.43 0-272.88 112-287.16 260.53-1.48 15.39-14.41 27.13-29.86 27.13H158z m658.36 119.98s0.01 0 0 0c0.01 0 0 0 0 0z m-0.04 0h0z m-0.04-0.01c0.01 0.01 0.01 0.01 0 0 0.01 0.01 0.01 0.01 0 0z" p-id="9755" fill="#515151"></path><path d="M402.03 503.31m-60 0a60 60 0 1 0 120 0 60 60 0 1 0-120 0Z" p-id="9756" fill="#515151"></path><path d="M628.04 503.31m-60 0a60 60 0 1 0 120 0 60 60 0 1 0-120 0Z" p-id="9757" fill="#515151"></path></svg>