<?xml version="1.0" standalone="no"?><!DOCTYPE svg PUBLIC "-//W3C//DTD SVG 1.1//EN" "http://www.w3.org/Graphics/SVG/1.1/DTD/svg11.dtd"><svg t="1625915686136" class="icon" viewBox="0 0 1510 1024" version="1.1" xmlns="http://www.w3.org/2000/svg" p-id="8451" xmlns:xlink="http://www.w3.org/1999/xlink" width="294.921875" height="200"><defs><style type="text/css"></style></defs><path d="M1315.797447 14.309251H161.502946A140.715107 140.715107 0 0 0 20.944837 154.889788v699.516014a140.715107 140.715107 0 0 0 140.558109 140.558109h1154.294501a140.737535 140.737535 0 0 0 140.558109-140.558109V154.889788A140.737535 140.737535 0 0 0 1315.797447 14.309251z m0 90.49816c6.616346 0 12.941125 1.345698 18.705195 3.723096L753.004303 563.89213 166.100746 104.807411h1149.696701zM183.617242 904.465751l388.816879-274.141019a30.166053 30.166053 0 1 0-34.786282-49.297387L117.296781 877.394802a49.454385 49.454385 0 0 1-5.853784-22.989V154.889788c0-5.001509 0.986845-9.778736 2.377399-14.398964l601.97537 470.926857a60.466677 60.466677 0 0 0 74.394646 0l575.666983-450.808679v693.7968c0 1.009273-0.246711 1.951261-0.291567 2.938106l-391.95684-276.316563a30.166053 30.166053 0 1 0-34.741425 49.297387l387.22447 273.042033c-3.319387 0.695277-6.728488 1.098986-10.294586 1.098986H183.617242z" p-id="8452" fill="#515151"></path></svg>