<?xml version="1.0" standalone="no"?><!DOCTYPE svg PUBLIC "-//W3C//DTD SVG 1.1//EN" "http://www.w3.org/Graphics/SVG/1.1/DTD/svg11.dtd"><svg t="1625916001887" class="icon" viewBox="0 0 1024 1024" version="1.1" xmlns="http://www.w3.org/2000/svg" p-id="10741" xmlns:xlink="http://www.w3.org/1999/xlink" width="200" height="200"><defs><style type="text/css"></style></defs><path d="M245.333282 298.666604a149.333302 149.333302 0 1 1 149.333302-149.333302 149.333302 149.333302 0 0 1-149.333302 149.333302z m0-213.333288a63.999987 63.999987 0 1 0 63.999987 63.999986 63.999987 63.999987 0 0 0-63.999987-63.999986zM778.666504 341.333262a149.333302 149.333302 0 1 1 149.333303-149.333302 149.333302 149.333302 0 0 1-149.333303 149.333302z m0-213.333289a63.999987 63.999987 0 1 0 63.999987 63.999987 63.999987 63.999987 0 0 0-63.999987-63.999987zM874.666484 1023.999787h-170.666631a42.666658 42.666658 0 0 1-42.666657-39.039992l-14.506664-172.799964a42.666658 42.666658 0 1 1 85.333315-7.039999l11.093331 133.546639h92.159981L853.333156 721.706516A42.666658 42.666658 0 0 1 895.999813 682.666524h42.666658v-127.999973a85.333316 85.333316 0 0 0-83.413316-85.333315 42.666658 42.666658 0 0 1 0-85.333316A170.666631 170.666631 0 0 1 1023.999787 554.666551v170.666631a42.666658 42.666658 0 0 1-42.666658 42.666658h-46.079991L917.333142 984.959795A42.666658 42.666658 0 0 1 874.666484 1023.999787zM319.999933 1023.999787H127.999973a42.666658 42.666658 0 0 1-42.666657-42.666658V767.99984H42.666658a42.666658 42.666658 0 0 1-42.666658-42.666658V511.999893a170.666631 170.666631 0 0 1 170.666631-170.666631h19.413329a42.666658 42.666658 0 0 1 0 85.333316H170.666631a85.333316 85.333316 0 0 0-85.333315 85.333315v170.666631h42.666657a42.666658 42.666658 0 0 1 42.666658 42.666658v213.333289h110.079977l11.093331-133.759972a42.666658 42.666658 0 0 1 85.333316 7.253332l-14.506664 172.799964A42.666658 42.666658 0 0 1 319.999933 1023.999787z" fill="#515151" p-id="10742"></path><path d="M511.999893 842.666491a42.666658 42.666658 0 0 1-29.22666-10.666664l-198.399959-187.733295a170.666631 170.666631 0 0 1 0-241.493283A170.666631 170.666631 0 0 1 511.999893 389.333252a170.666631 170.666631 0 0 1 227.413286 254.079947l-16.21333 16.21333-181.119962 170.666631a42.666658 42.666658 0 0 1-30.079994 12.373331z m-106.666644-405.333249a85.333316 85.333316 0 0 0-60.373321 24.959995 85.333316 85.333316 0 0 0 0 120.746642l16.426663 16.426663L511.999893 741.333179l167.039966-158.2933a85.333316 85.333316 0 0 0 0-120.959975 85.333316 85.333316 0 0 0-120.533309 0l-16.21333 16.21333a44.159991 44.159991 0 0 1-60.586654 0l-16.21333-16.426664A85.333316 85.333316 0 0 0 405.333249 437.333242z m287.99994 191.99996z" fill="#515151" p-id="10743"></path></svg>